# Blender v2.83.2 OBJ File: ''
# www.blender.org
o Circle_Circle.002
v 0.000000 0.000000 0.000000
v 0.000000 0.000000 -1.430000
v -0.278979 0.000000 -1.402523
v -0.547237 0.000000 -1.321147
v -0.794465 0.000000 -1.189001
v -1.011162 0.000000 -1.011162
v -1.189001 0.000000 -0.794465
v -1.321147 0.000000 -0.547237
v -1.402523 0.000000 -0.278979
v -1.430000 0.000000 -0.000000
v 1.430000 0.000000 -0.000001
v 1.402522 0.000000 -0.278981
v 1.321147 0.000000 -0.547239
v 1.189000 0.000000 -0.794467
v 1.011161 0.000000 -1.011164
v 0.794464 0.000000 -1.189002
v 0.547235 0.000000 -1.321148
v 0.278977 0.000000 -1.402523
vt 0.500000 0.500000
vt 0.500000 1.000000
vt 0.402455 0.990393
vt 0.308658 0.961940
vt 0.222215 0.915735
vt 0.146447 0.853553
vt 0.084265 0.777785
vt 0.038060 0.691342
vt 0.009607 0.597545
vt 0.000000 0.500000
vt 1.000000 0.500000
vt 0.990393 0.597546
vt 0.961940 0.691342
vt 0.915734 0.777786
vt 0.853553 0.853554
vt 0.777785 0.915735
vt 0.691341 0.961940
vt 0.597544 0.990393
vn 0.0000 1.0000 0.0000
s off
f 1/1/1 2/2/1 3/3/1
f 1/1/1 3/3/1 4/4/1
f 1/1/1 4/4/1 5/5/1
f 1/1/1 5/5/1 6/6/1
f 1/1/1 6/6/1 7/7/1
f 1/1/1 7/7/1 8/8/1
f 1/1/1 8/8/1 9/9/1
f 1/1/1 9/9/1 10/10/1
f 1/1/1 11/11/1 12/12/1
f 1/1/1 12/12/1 13/13/1
f 1/1/1 13/13/1 14/14/1
f 1/1/1 14/14/1 15/15/1
f 1/1/1 15/15/1 16/16/1
f 1/1/1 16/16/1 17/17/1
f 1/1/1 17/17/1 18/18/1
f 1/1/1 18/18/1 2/2/1
